<svg width="100%" height="100%" viewBox="0 0 418 323" version="1.1" xmlns="http://www.w3.org/2000/svg" xmlns:xlink="http://www.w3.org/1999/xlink" xml:space="preserve" xmlns:serif="http://www.serif.com/" style="fill-rule:evenodd;clip-rule:evenodd;stroke-linejoin:round;stroke-miterlimit:2;"><g id="Layer-1" serif:id="Layer 1"><path id="path181" d="M285.375,320.924c-15.059,-3.281 -18.031,-3.674 -27.762,-3.674c-17.835,0 -27.574,-2.202 -32.958,-7.451l-3.03,-2.953l-5.974,1.433c-33.188,7.967 -124.896,13.816 -148.151,9.45c-16.92,-3.178 -28.028,-7.702 -37.617,-15.322c-12.905,-10.255 -22.738,-25.617 -27.465,-42.907c-3.734,-13.658 -2.374,-29.783 3.333,-39.521c4.139,-7.065 10.87,-11.614 15.473,-10.459c2.445,0.614 3.003,3.087 1.735,7.681c-0.558,2.021 -1.92,6.88 -3.027,10.799c-2.907,10.293 -3.344,19.675 -1.27,27.232c3.818,13.907 11.533,23.933 24.437,31.754c21.907,13.278 48.991,15.288 84.608,6.278c6.095,-1.541 11.255,-2.976 11.468,-3.189c0.212,-0.212 -0.007,-5.744 -0.486,-12.293c-1.033,-14.118 -0.516,-34.167 1.107,-42.922c5.718,-30.845 20.149,-57.76 43.701,-81.505c8.589,-8.659 17.595,-15.895 26.128,-20.994c6.978,-4.17 10.9,-6.006 30.006,-14.053c13.135,-5.531 22.145,-10.682 27.87,-15.933c5.718,-5.245 6.235,-7.144 5.709,-21c-0.305,-8.046 -0.051,-14.985 0.892,-24.367c1.448,-14.404 1.303,-17.518 -1.463,-31.508c-1.142,-5.776 -1.861,-12.032 -1.871,-16.295c-0.017,-6.558 0.08,-6.985 1.851,-8.145c1.028,-0.674 2.359,-1.037 2.957,-0.808c0.597,0.23 6.111,4.486 12.252,9.458c6.141,4.972 11.846,9.04 12.678,9.04c3.125,0 5.262,-4.655 6.12,-13.329c0.423,-4.274 0.716,-5.046 1.918,-5.046c2.539,0 4.364,3.535 4.773,9.244l0.376,5.257l8.341,0.253c7.72,0.234 8.788,0.456 14.341,2.981c3.3,1.501 7.687,2.967 9.749,3.258c12.587,1.779 18.898,8.458 16.902,17.888c-1.132,5.347 -7.168,17.432 -13.093,26.214c-6.713,9.95 -7.098,11.676 -4.708,21.155c3.183,12.631 3.885,18.21 3.869,30.75c-0.017,13.5 -1.03,19.701 -5.328,32.625c-4.514,13.573 -4.197,24.49 1.012,34.821c4.351,8.629 8.827,11.831 24.214,17.323c17.244,6.154 27.778,12.372 36.434,21.505c5.957,6.285 9.543,12.521 11.169,19.421c2.989,12.68 -0.792,21.68 -9.108,21.68c-6.996,0 -10.339,-3.696 -15.615,-17.258c-4.989,-12.824 -5.452,-13.175 -22.151,-16.774c-25.345,-5.463 -38.585,-9.016 -50.426,-13.531c-8.732,-3.33 -11.333,-2.551 -13.687,4.1c-2.377,6.718 -5.575,20.007 -6.352,26.401c-0.902,7.418 -0.103,16.374 2.058,23.056c1.153,3.563 1.944,4.531 6.561,8.025c7.463,5.648 10.875,9.602 10.875,12.601c0,7.23 -10.611,11.251 -18.987,7.197c-6.982,-3.38 -13.661,-13.25 -18.094,-26.738c-2.438,-7.417 -5.192,-22.093 -6.818,-36.329c-0.684,-5.981 -1.347,-10.983 -1.474,-11.115c-0.402,-0.416 -6.365,2.859 -10.129,5.563c-4.439,3.189 -5.248,5.314 -5.248,13.782c0,8.684 -1.783,18.661 -5.348,29.925c-2.933,9.267 -2.936,9.283 -1.607,11.995c1.212,2.475 2.027,2.97 9.205,5.598c4.331,1.586 9.616,3.521 11.744,4.3c2.128,0.779 9.097,2.261 15.488,3.292c18.831,3.039 23.393,5.482 23.393,12.524c-0,3.42 -0.268,3.993 -3.093,6.628c-5.149,4.804 -10.564,5.512 -22.407,2.932Z" style="fill-rule:nonzero;"/></g></svg>