<svg width="100%" height="100%" viewBox="0 0 596 842" version="1.1" xmlns="http://www.w3.org/2000/svg" xmlns:xlink="http://www.w3.org/1999/xlink" xml:space="preserve" xmlns:serif="http://www.serif.com/" style="fill-rule:evenodd;clip-rule:evenodd;stroke-linejoin:round;stroke-miterlimit:2;"><g id="layer1"><path id="path179" d="M482.1,524.749c-0.196,-0.317 -1.701,-3.945 -3.346,-8.063c-6.981,-17.481 -20.994,-47.983 -23.445,-51.032c-0.425,-0.529 -6.566,2.184 -18.316,8.093c-19.387,9.748 -23.058,10.925 -30.049,9.632c-5.066,-0.936 -7.968,-2.883 -9.681,-6.493c-1.207,-2.543 -1.21,-2.926 -0.047,-5.971c1.184,-3.1 9.929,-12.34 11.679,-12.34c1.457,-0 0.666,-1.446 -1.312,-2.397c-3.236,-1.556 -5.466,-5.512 -5.466,-9.697c0,-6.297 4.941,-17.152 9.933,-21.823c1.2,-1.123 1.995,-2.343 1.768,-2.712c-0.468,-0.756 -6.804,-2.035 -13.694,-2.764c-4.188,-0.443 -5.267,-0.229 -11.589,2.301c-4.332,1.732 -8.736,2.93 -11.631,3.163c-4.264,0.342 -4.824,0.209 -6.598,-1.565c-3.074,-3.074 -2.571,-4.804 1.999,-6.869c6.116,-2.764 9.824,-3.006 15.937,-1.042c3.741,1.202 7.407,1.735 12.75,1.856c4.125,0.093 9.329,0.689 11.565,1.324c4.153,1.181 5.307,1.071 5.315,-0.507c0.002,-0.492 0.51,-1.863 1.129,-3.049c1.088,-2.086 1.035,-2.253 -1.638,-5.25c-3.696,-4.141 -3.865,-4.213 -7.848,-3.302c-4.501,1.03 -7.054,0.326 -10.192,-2.811c-2.498,-2.499 -2.551,-2.682 -2.389,-8.238c0.161,-5.513 0.092,-5.759 -2.32,-8.246c-3.207,-3.31 -6.568,-4.872 -10.48,-4.872c-2.544,-0 -3.928,0.612 -7.386,3.266c-10.445,8.018 -23.661,15.154 -32.173,17.371c-6.239,1.625 -7.468,1.259 -1.493,-0.445c5.968,-1.702 15.217,-5.761 14.58,-6.398c-0.243,-0.243 -3.924,0.752 -8.181,2.21c-8.196,2.808 -16.4,4.246 -24.23,4.246c-2.847,-0 -4.871,0.337 -5.039,0.84c-0.403,1.209 -14.302,-2.124 -17.311,-4.152c-1.313,-0.885 -2.83,-2.442 -3.373,-3.461c-1.335,-2.509 -0.749,-9.69 1.252,-15.326c0.873,-2.461 1.587,-4.73 1.587,-5.043c0,-0.313 -4.64,2.716 -10.312,6.73c-14.79,10.467 -14.305,10.201 -19.688,10.771c-2.681,0.284 -6.423,0.751 -8.316,1.037c-3.149,0.477 -3.669,0.321 -6.138,-1.848c-6.866,-6.027 -7.036,-21.992 -0.361,-33.724c5.818,-10.225 20.548,-21.905 31.32,-24.835c2.14,-0.582 8.115,-0.875 16.367,-0.804c7.148,0.062 12.828,-0.16 12.623,-0.492c-0.206,-0.333 -3.017,-2.266 -6.247,-4.295c-3.23,-2.029 -10.492,-6.663 -16.139,-10.297l-10.266,-6.609l-3.533,1.879c-6.529,3.472 -12.95,1.911 -15.664,-3.808c-1.341,-2.827 -1.336,-2.906 0.368,-6.119c1.229,-2.317 1.495,-3.486 0.922,-4.059c-1.195,-1.195 -2.206,-0.221 -2.743,2.641c-0.695,3.704 -5.91,11.353 -9.215,13.515c-1.569,1.027 -3.865,2.084 -5.103,2.349c-1.565,0.335 -1.079,-0.085 1.596,-1.378c3.696,-1.786 6.822,-4.534 3.59,-3.155c-0.79,0.337 -3.798,1.465 -6.686,2.507c-6.124,2.209 -6.25,2.286 -5.023,3.044c1.483,0.916 -10.206,2.406 -18.74,2.388c-9.481,-0.02 -19.197,-1.672 -23.288,-3.959c-1.686,-0.942 -4.102,-3.003 -5.37,-4.58c-3.188,-3.966 -3.641,-11.371 -1.172,-19.193c0.928,-2.94 1.84,-5.193 2.027,-5.005c0.188,0.187 -0.04,1.493 -0.505,2.903c-5.649,17.116 0.689,26.803 17.52,26.78c7.06,-0.008 23.691,-1.92 29.301,-3.365c6.633,-1.709 13.58,-5.341 15.81,-8.264c2.183,-2.861 4.188,-8.702 3.417,-9.95c-1.398,-2.261 -11.931,-3.523 -38.352,-4.593l-14.625,-0.593l17.063,-0.114c17.086,-0.114 20.353,-0.68 13.875,-2.404c-1.753,-0.467 -7.603,-2.64 -13.001,-4.83c-9.258,-3.757 -10.021,-3.943 -13.5,-3.285c-2.027,0.384 -5.88,1.011 -8.562,1.394c-3.596,0.514 -5.232,1.137 -6.238,2.375l-1.364,1.678l0.508,-2.021c0.464,-1.85 0.321,-2.02 -1.69,-2.02c-2.636,-0 -9.937,-3.595 -11.044,-5.438c-2.497,-4.155 8.546,-8.537 16.789,-6.664c3.219,0.732 3.438,0.666 6.283,-1.904c1.621,-1.465 4.508,-3.357 6.415,-4.205l3.466,-1.542l-2.25,-0.663c-3.889,-1.146 -11.806,0.042 -23.009,3.455c-11.316,3.446 -18.946,4.991 -32.359,6.55c-7.166,0.833 -8.298,0.799 -10.638,-0.317c-1.44,-0.686 -2.619,-1.613 -2.619,-2.059c0,-1.006 8.653,-5.027 17.625,-8.192c3.713,-1.31 12.978,-3.888 20.59,-5.729c7.613,-1.841 13.984,-3.491 14.159,-3.666c0.175,-0.175 -1.273,-2.088 -3.218,-4.251c-4.016,-4.467 -6.682,-9.327 -8.959,-16.337c-2.511,-7.73 -3.062,-7.913 -23.697,-7.913l-16.875,-0l-3.977,-2.204c-3.795,-2.102 -9.148,-7.146 -9.148,-8.62c0,-1.416 2.431,-3.047 6.223,-4.176c4.103,-1.221 14.823,-1.599 19.749,-0.695c3.748,0.687 9.709,3.376 12.975,5.852c1.414,1.073 2.708,1.813 2.875,1.646c0.168,-0.168 -2.27,-3.539 -5.417,-7.492c-7.633,-9.587 -9.414,-14.843 -6.766,-19.963c1.256,-2.43 4.457,-3.677 5.854,-2.282c0.544,0.544 1.028,4.677 1.262,10.783c0.208,5.445 0.695,10.407 1.081,11.026c1.054,1.688 13.47,14.999 13.992,14.999c0.249,0 0.295,-1.638 0.102,-3.64c-0.462,-4.812 1.051,-15.883 2.799,-20.484c2.315,-6.094 5.903,-10.992 9.677,-13.211c2.994,-1.76 4.291,-2.039 9.469,-2.039c5.192,-0 6.472,0.277 9.5,2.057c9.766,5.741 14.141,16.187 14.059,33.568c-0.043,8.972 -1.111,19.793 -1.34,13.562c-0.051,-1.409 -0.287,-2.369 -0.523,-2.133c-0.236,0.236 -1.61,5.27 -3.054,11.187c-1.949,7.987 -2.52,11.71 -2.216,14.451c0.712,6.415 1.596,5.188 2.536,-3.516c0.501,-4.635 1.248,-9.439 1.661,-10.676c0.648,-1.943 0.689,-1.79 0.298,1.125c-1.175,8.755 -1.558,14.486 -1.114,16.657c0.467,2.284 0.69,2.409 5.833,3.275c18.715,3.154 28.101,10.808 28.414,23.17c0.108,4.247 0.396,5.372 1.536,6c0.772,0.425 2.353,1.4 3.513,2.167c1.16,0.767 2.263,1.24 2.451,1.052c0.189,-0.189 -0.522,-2.231 -1.578,-4.54c-2.973,-6.492 -5.589,-18.034 -6.071,-26.781c-0.32,-5.809 -0.921,-9.127 -2.289,-12.645c-2.828,-7.275 -4.294,-16.038 -3.225,-19.277c1.187,-3.596 3.659,-5.172 6.257,-3.989c2.493,1.136 3.794,3.146 5.285,8.167c1.71,5.759 1.513,7.72 -1.433,14.244c-2.371,5.253 -2.623,6.455 -2.612,12.469c0.009,3.661 0.513,9.016 1.125,11.901c1.362,6.433 5.479,18.958 6.422,19.541c1.305,0.807 0.667,-3.047 -1.56,-9.411c-3.233,-9.245 -2.814,-14.999 1.832,-25.141c2.964,-6.471 6.336,-10.415 10.851,-12.692c9.593,-4.838 18.747,-2.128 22.903,6.78c1.754,3.759 1.507,3.598 3.537,2.312c3.906,-2.475 14.131,-3.479 19.696,-1.934c5.789,1.607 18.962,10.557 21.705,14.745l1.601,2.446l8.25,0.336c8.391,0.342 13.871,1.442 18.105,3.632c3.885,2.01 8.837,7.544 11.806,13.195c1.538,2.926 3.071,5.321 3.407,5.321c0.335,-0 0.793,-1.363 1.016,-3.029c0.223,-1.665 1.277,-4.169 2.341,-5.564c2.976,-3.903 5.659,-4.451 16.533,-3.382l9.272,0.912l2.532,-1.931c3.693,-2.817 8.847,-4.971 11.94,-4.99c3.49,-0.023 7.507,2.685 8.325,5.609c1.499,5.36 -1.725,14.845 -8.415,24.75c-1.115,1.65 -2.274,4.675 -2.577,6.722c-0.584,3.955 -3.896,11.173 -6.987,15.225c-1.026,1.347 -4.27,4.174 -7.207,6.284c-8.845,6.353 -11.593,9.454 -9.515,10.738c0.385,0.238 3.247,-1.113 6.359,-3.002c3.113,-1.89 8.451,-4.461 11.862,-5.714c5.263,-1.933 6.963,-2.226 11.21,-1.932c8.569,0.591 14.568,5.617 15.914,13.331c1.122,6.431 -2.433,16.306 -11.016,30.598c-7.522,12.525 -14.862,20.106 -23.592,24.368c-1.753,0.855 -3.178,1.91 -3.166,2.343c0.012,0.434 1.028,1.894 2.257,3.245l2.234,2.457l4.306,-1.313c2.932,-0.894 6.82,-1.313 12.181,-1.313c6.693,0.001 8.48,0.271 11.903,1.8c5.734,2.562 8.347,6.351 8.347,12.101c0,5.196 -0.766,7.42 -3.939,11.426c-2.34,2.954 -2.352,3.009 -0.54,2.415c3.815,-1.249 9.502,-1.31 11.791,-0.127c2.925,1.513 6.116,7.973 3.938,7.973c-0.412,-0 -0.75,0.688 -0.75,1.529c0,2.631 -2.998,7.686 -6.988,11.783c-4.964,5.096 -3.204,5.114 2.346,0.023l4.267,-3.914l-3.375,3.593c-1.856,1.975 -4.303,4.147 -5.437,4.825c-1.134,0.678 -2.063,1.457 -2.063,1.731c0,0.275 2.496,5.686 5.546,12.026c3.051,6.34 7.97,16.927 10.931,23.527c2.962,6.6 6.761,14.942 8.442,18.538c2.541,5.436 2.896,6.731 2.102,7.687c-1.003,1.209 -3.432,1.555 -4.038,0.575l-0,0.001Zm-60.83,-45.578c15.069,-7.677 30.102,-15.864 31.756,-17.293c0.371,-0.321 -7.712,-14.586 -9.557,-16.865c-1.791,-2.211 -2.364,-1.797 -8.355,6.047c-4.756,6.227 -9.329,11.265 -10.227,11.265c-0.32,-0 0.782,-1.435 2.449,-3.188c3.798,-3.994 8.844,-11 8.308,-11.536c-0.222,-0.221 -4.086,1.152 -8.587,3.052c-13.886,5.861 -25.915,14.91 -27.928,21.011c-1.104,3.346 0.072,6.024 3.738,8.508c2.299,1.557 3.329,1.747 8.278,1.528c4.496,-0.199 6.569,-0.717 10.125,-2.529Zm40.379,-23.671c5.973,-5.258 9.353,-13.186 7.276,-17.068c-1.309,-2.446 -5.09,-4.086 -8.233,-3.571c-4.565,0.748 -13.859,3.942 -14.168,4.869c-0.161,0.482 0.696,2.473 1.904,4.423c1.209,1.951 3.617,5.993 5.352,8.984c1.735,2.991 3.429,5.438 3.765,5.438c0.336,-0 2.183,-1.384 4.104,-3.075Zm-45.961,-1.843c2.415,-1.467 7.607,-3.976 11.537,-5.575c7.693,-3.13 11.642,-5.532 11.642,-7.08c0,-1.323 -11.507,-12.243 -16.066,-15.246c-4.565,-3.007 -5.704,-3.026 -8.981,-0.149c-5.347,4.695 -10.203,14.375 -10.203,20.338c0,3.704 2.172,7.902 4.742,9.17c1.311,0.647 2.508,1.183 2.66,1.192c0.152,0.009 2.253,-1.183 4.669,-2.65Zm32.404,-17.324c7.018,-3.629 10.275,-8.231 10.275,-14.515c0,-3.747 -0.208,-4.201 -3.288,-7.151c-4.277,-4.099 -8.621,-5.194 -18.39,-4.638c-3.958,0.225 -8.14,0.775 -9.293,1.222l-2.097,0.812l4.722,5.858c2.597,3.222 6.909,8.962 9.582,12.756c2.674,3.793 5.137,6.898 5.475,6.898c0.338,-0 1.694,-0.559 3.014,-1.242Zm-16.508,-9.446c-3.256,-4.254 -9.44,-11.812 -9.666,-11.812c-0.358,-0 -2.637,5.423 -2.373,5.647c0.109,0.092 2.111,1.238 4.449,2.547c2.338,1.309 4.658,2.869 5.154,3.468c1.139,1.372 3.481,1.516 2.436,0.15l-0,0Zm-49.623,-4.7c1.805,-0.626 3.725,-1.298 4.266,-1.495c0.542,-0.196 0.787,-0.679 0.543,-1.072c-0.268,-0.435 -1.647,-0.29 -3.516,0.369c-1.69,0.597 -4.549,1.17 -6.352,1.273c-1.802,0.103 -3.279,0.384 -3.281,0.625c-0.014,1.764 3.728,1.898 8.34,0.3Zm0.844,-3.424c2.784,-0.53 5.062,-1.219 5.062,-1.53c0,-2.022 -12.963,-1.16 -15.611,1.037c-0.921,0.765 -0.813,0.983 0.699,1.419c1.924,0.555 2.216,0.527 9.85,-0.926Zm29.405,-14.137c0.238,-0.384 0.124,-0.888 -0.253,-1.121c-0.993,-0.614 -7.59,0.405 -7.59,1.171c0,0.877 7.299,0.831 7.843,-0.05l0,0Zm10.406,-4.262c5.26,-3.083 9.841,-6.547 12.284,-9.289c3.03,-3.403 1.788,-3.114 -2.711,0.63c-2.435,2.027 -6.992,5.1 -10.125,6.83c-3.133,1.729 -5.697,3.458 -5.697,3.842c0,1.244 1.535,0.749 6.249,-2.013Zm-13.749,0.625c0,-1.328 -8.887,-9.322 -9.762,-8.782c-1.361,0.841 -0.452,7.173 1.205,8.384c1.435,1.05 8.557,1.38 8.557,0.398Zm-62.082,-3.396c4.011,-1.057 9.918,-3.29 13.125,-4.961c5.881,-3.065 12.53,-7.888 13.264,-9.62c0.552,-1.306 -7.436,-1.213 -17.932,0.21c-17.402,2.359 -28.008,3.333 -34.875,3.203c-4.762,-0.089 -5.633,-0.211 -2.625,-0.365c8.794,-0.45 19.709,-1.79 35.25,-4.326c8.663,-1.414 17.652,-2.793 19.977,-3.066c3.522,-0.412 4.367,-0.804 5.072,-2.35c0.465,-1.021 0.683,-2.119 0.484,-2.44c-0.448,-0.726 -15.854,-12.338 -21.304,-16.058c-4.477,-3.056 -4.896,-3.111 -12.854,-1.685c-11.848,2.123 -30.386,10.046 -35.509,15.176c-4.64,4.646 -7.991,12.7 -7.991,19.205c0,3.166 0.334,4.019 2.291,5.846c3.336,3.116 6.983,3.668 22.459,3.396c11.997,-0.21 14.863,-0.503 21.168,-2.165l0,-0Zm74.244,-0.594c12.596,-6.399 24.619,-19.859 30.642,-34.303c2.671,-6.406 3.62,-14.183 2.241,-18.362c-2.156,-6.531 -11.132,-10.603 -19.545,-8.865c-4.338,0.896 -13.854,5.162 -19.521,8.751l-3.354,2.124l2.25,0.62c3.263,0.9 5.168,3.935 5.105,8.131c-0.079,5.23 -2.47,9.7 -8.399,15.7c-2.932,2.967 -5.331,5.895 -5.331,6.506c0,1.348 0.252,1.206 7.5,-4.251c7.591,-5.715 13.586,-9.665 19.875,-13.096c7.083,-3.863 5.525,-2.532 -5.218,4.457c-6.439,4.19 -11.411,8.242 -17.625,14.366l-8.657,8.53l6.474,6.399c7.186,7.103 6.426,6.919 13.563,3.293Zm-146.278,-6.699c2.622,-0.728 15.784,-9.858 25.945,-17.997c5.981,-4.791 10.763,-11.238 14.9,-20.087c2.867,-6.132 5.232,-14.875 4.29,-15.859c-0.692,-0.721 -6.028,2.77 -10.365,6.782c-2.491,2.305 -8.241,6.826 -12.779,10.047c-4.537,3.221 -9.347,6.886 -10.687,8.145c-1.341,1.258 -2.438,1.924 -2.438,1.48c0,-0.831 4.725,-5.122 13.82,-12.553c5.109,-4.174 16.18,-14.41 16.18,-14.96c0,-0.155 -4.64,-0.509 -10.312,-0.786c-12.237,-0.6 -15.599,0.076 -23.195,4.666c-11.391,6.882 -19.694,15.631 -23.41,24.664c-3.283,7.984 -2.886,20.67 0.795,25.349c1.379,1.754 1.93,1.883 7.989,1.879c3.58,-0.002 7.75,-0.349 9.267,-0.77Zm126.175,-7.533c2.3,-2.733 2.725,-6.46 0.629,-5.505c-0.722,0.328 -3.253,0.732 -5.625,0.896c-2.372,0.165 -4.318,0.523 -4.324,0.796c-0.014,0.589 6.166,6.066 6.882,6.098c0.273,0.011 1.37,-1.016 2.438,-2.285Zm-18.315,-5.961c-1.307,-0.826 -2.411,-0.603 -2.801,0.565c-0.346,1.04 2.175,1.67 3.176,0.793c0.478,-0.419 0.344,-0.904 -0.375,-1.358Zm19.349,-1.424c3.55,-1.84 11.544,-10.03 13.588,-13.921c0.945,-1.8 1.569,-4.389 1.569,-6.508c0,-2.909 -0.343,-3.789 -1.976,-5.074c-1.087,-0.855 -2.449,-1.554 -3.026,-1.554c-1.919,-0 -4.965,2.54 -7.12,5.937c-2.624,4.14 -2.675,3.737 -0.227,-1.799c2.182,-4.934 2.028,-5.342 -3.18,-8.394c-9.733,-5.703 -19.659,-6.148 -26.347,-1.179c-8.039,5.973 -6.901,14.978 3.189,25.218c7.947,8.066 16.751,10.788 23.53,7.274l-0,0Zm-70.618,-18.073c4.895,-1.695 10.925,-3.505 13.4,-4.023l4.5,-0.942l-10.95,-7.26c-6.023,-3.993 -11.257,-7.259 -11.63,-7.259c-0.374,-0 -1.12,1.434 -1.658,3.187c-0.538,1.753 -1.863,4.538 -2.944,6.188c-1.081,1.65 -3.138,5.193 -4.571,7.875c-1.433,2.681 -3.228,5.77 -3.989,6.865c-2.375,3.42 -1.554,3.638 3.78,1.002c2.839,-1.404 9.168,-3.938 14.062,-5.633Zm40.025,5.666c0,-0.192 -0.571,-1.547 -1.268,-3.01c-0.975,-2.045 -1.942,-2.841 -4.182,-3.444c-5.493,-1.479 -5.66,-0.489 -0.539,3.185c4.618,3.313 5.989,4.061 5.989,3.269Zm-3,-10.809c0,-2.643 1.563,-6.516 3.753,-9.3c5.723,-7.275 19.035,-7.14 31.69,0.322c1.993,1.175 3.824,2.137 4.069,2.137c0.771,-0 -0.492,-8.287 -1.587,-10.404c-0.675,-1.307 -2.701,-2.788 -5.716,-4.18c-3.761,-1.736 -5.105,-2.856 -6.91,-5.761c-1.873,-3.013 -2.464,-3.486 -3.596,-2.88c-0.745,0.398 -1.967,0.699 -2.716,0.667c-0.755,-0.031 -0.212,-0.472 1.218,-0.989c3.269,-1.181 4.173,-3.042 1.056,-2.174c-1.175,0.328 -5.257,0.583 -9.071,0.567c-7.837,-0.032 -7.636,0.84 0.56,2.425l4.875,0.942l-5.25,-0.42c-5.89,-0.471 -13.984,-2.941 -20.636,-6.299c-2.445,-1.234 -4.584,-2.244 -4.753,-2.244c-0.169,-0 -0.669,1.437 -1.112,3.193c-0.973,3.864 -4.777,9.79 -7.506,11.694c-1.096,0.764 -3.591,1.99 -5.545,2.724c-4.918,1.848 -5.61,2.845 -4.129,5.951c2.12,4.445 15.67,13.885 20.109,14.01c1.415,0.039 4.26,0.505 6.322,1.035c2.063,0.531 4.003,1.004 4.313,1.053c0.309,0.049 0.562,-0.882 0.562,-2.069Zm-45.74,-7.611c1.895,-3.713 2.744,-8.523 1.428,-8.085c-0.513,0.171 -1.505,2.318 -2.205,4.77c-0.7,2.453 -1.547,5.106 -1.88,5.895c-1.118,2.642 1.083,0.506 2.657,-2.58Zm89.365,-6.605c0.138,-0.343 2.729,-2.419 5.759,-4.612c3.029,-2.193 6.802,-5.623 8.383,-7.624c2.652,-3.355 6.468,-11.655 5.708,-12.415c-0.18,-0.18 -1.964,0.835 -3.964,2.256c-5.129,3.646 -7.553,4.764 -14.253,6.579c-3.236,0.876 -6.116,1.812 -6.4,2.079c-0.285,0.268 0.137,2.842 0.937,5.72c0.8,2.879 1.455,6.001 1.455,6.938c0,1.615 1.828,2.446 2.375,1.079Zm-78.125,-0.789c0,-0.946 -3.68,-3.235 -4.671,-2.905c-0.466,0.156 -0.055,0.998 0.938,1.923c1.797,1.675 3.733,2.184 3.733,0.982Zm1.913,-4.46c0.392,-0.343 2.092,-1.015 3.779,-1.494c7.13,-2.023 13.033,-9.247 13.051,-15.97c0.006,-2.333 -0.409,-2.988 -2.96,-4.677c-4.18,-2.766 -8.922,-9.374 -10.603,-14.776c-1.593,-5.119 -1.855,-11.914 -0.609,-15.785c1.06,-3.289 5.077,-6.932 8.91,-8.08c1.661,-0.498 3.019,-1.281 3.019,-1.741c0,-2.976 -16.734,-14.499 -22.836,-15.724c-4.541,-0.912 -12.947,-0.032 -16.664,1.745c-2.082,0.995 -2.134,1.174 -2.595,8.883c-0.484,8.1 -2.155,13.624 -7.042,23.268l-1.868,3.686l2.573,7.58c1.415,4.169 3.694,9.493 5.065,11.831c3.63,6.193 11.316,13.62 17.443,16.855c2.86,1.51 5.28,2.667 5.376,2.571c0.097,-0.097 0.571,-3.044 1.053,-6.55c1.11,-8.062 0.445,-15.384 -2.276,-25.076c-1.163,-4.145 -1.993,-7.658 -1.845,-7.807c0.506,-0.505 4.153,12.445 5.279,18.742c0.747,4.176 0.959,8.191 0.637,12.031c-0.737,8.765 0.463,12.807 3.113,10.488Zm-11.195,-45.53c-0.724,-1.886 -0.51,-2.373 0.374,-0.853c0.438,0.753 0.638,1.527 0.445,1.72c-0.193,0.193 -0.562,-0.197 -0.819,-0.867Zm80.996,40.911c-0.669,-4.18 -3.224,-10.752 -4.959,-12.752l-1.456,-1.679l-2.462,2.07c-3.043,2.56 -3.393,5.303 -1.109,8.704c1.481,2.206 7.952,6.583 9.806,6.632c0.362,0.009 0.443,-1.329 0.18,-2.975l-0,0Zm-93.007,-6.066c-6.259,-6.653 -12.198,-17.197 -12.983,-23.05c-0.234,-1.748 -0.675,-3.332 -0.979,-3.52c-0.304,-0.188 -1.78,1.508 -3.281,3.769c-2.767,4.167 -3.825,5.181 -2.917,2.797c0.284,-0.745 -1.187,0.097 -3.399,1.945c-2.144,1.792 -3.694,3.59 -3.444,3.994c0.26,0.422 1.163,0.071 2.111,-0.82c2.276,-2.138 3.336,-1.971 1.293,0.204l-1.654,1.76l14.836,9.467c8.159,5.207 15.124,9.477 15.476,9.49c0.352,0.011 -1.924,-2.704 -5.059,-6.036l-0,0Zm107.94,-3.2c5.126,-2.46 12.406,-8.188 11.526,-9.069c-0.246,-0.246 -2.101,0.866 -4.122,2.47c-2.022,1.604 -6.123,4.144 -9.113,5.646c-2.991,1.502 -5.438,2.895 -5.438,3.096c0,0.877 2.273,0.195 7.147,-2.143Zm-3.772,-1.798c6.498,-3.271 14.572,-9.28 19.087,-14.208c3.492,-3.811 4.703,-5.83 6.107,-10.182c2.122,-6.577 2.399,-12.769 0.587,-13.133c-1.755,-0.352 -27.083,16.429 -29.419,19.492c-2.463,3.229 -3.954,7.42 -4.647,13.059c-0.297,2.422 -0.811,5.128 -1.142,6.014c-0.331,0.886 -0.432,1.78 -0.224,1.988c0.593,0.593 5.536,-0.959 9.651,-3.03l0,-0Zm-10.934,-6.149c-0.012,-4.513 0.332,-9.523 0.766,-11.134c1.037,-3.852 4.161,-8.073 8.927,-12.063c2.126,-1.78 3.866,-3.507 3.866,-3.836c0,-0.33 -3.359,-0.84 -7.465,-1.134c-6.451,-0.462 -7.852,-0.345 -10.312,0.857c-3.226,1.575 -6.523,7.191 -6.523,11.109c0,1.265 1.898,6.347 4.218,11.291c2.32,4.945 4.449,9.919 4.732,11.053c1.071,4.306 1.812,1.765 1.791,-6.143Zm-16.714,6.268c2.006,-0.653 4.992,-2.322 6.635,-3.708l2.986,-2.521l-7.487,-7.408c-10.134,-10.029 -14.846,-12.383 -28.861,-14.422c-5.568,-0.81 -10.378,-1.479 -10.687,-1.488c-0.31,-0.008 -0.563,-0.376 -0.563,-0.816c0,-0.44 0.591,-0.626 1.313,-0.412c0.722,0.214 5.442,0.915 10.489,1.557c5.047,0.643 10.967,1.838 13.156,2.657c4.61,1.725 12.585,6.672 16.094,9.982c1.334,1.259 2.604,2.111 2.821,1.894c0.732,-0.732 -6.251,-15.729 -8.92,-19.155c-6.011,-7.715 -10.899,-9.537 -25.578,-9.533c-9.423,0.003 -10.829,0.176 -13.717,1.687c-5.103,2.671 -6.303,5.263 -5.962,12.874c0.334,7.453 1.84,10.981 7.079,16.581c4.293,4.591 8.136,6.831 16.554,9.651c11.221,3.76 18.638,4.536 24.648,2.58Zm-108.522,-5.109c1.419,-0.512 2.728,-1.375 2.908,-1.917c0.261,-0.782 -0.426,-0.85 -3.329,-0.328c-2.012,0.362 -5.599,0.66 -7.971,0.662c-2.373,0.003 -4.313,0.241 -4.313,0.53c0.001,2.057 8.074,2.727 12.705,1.053Zm-2.392,-3.868c0.515,-0.158 0.937,-0.588 0.937,-0.954c0,-1.08 -8.42,-6.226 -9.506,-5.81c-0.569,0.218 -0.994,1.529 -0.994,3.066c0,2.316 0.336,2.828 2.438,3.726c2.164,0.925 4.058,0.917 7.125,-0.028l-0,0Zm9.586,-5.687c6.7,-6.176 15.146,-20.048 17.282,-28.384c2.441,-9.53 0.614,-19.96 -4.295,-24.527c-4.159,-3.868 -11.536,-4.386 -17.826,-1.251c-4.77,2.376 -8.979,8.27 -11.321,15.851c-2.383,7.715 -1.995,12.891 1.972,26.299c0.208,0.704 1.14,0.273 3.072,-1.425c2.901,-2.546 8.754,-5.509 12.592,-6.374c1.387,-0.313 0.456,0.409 -2.424,1.879c-3.206,1.638 -6.209,4.069 -9.562,7.743c-2.689,2.946 -4.888,5.707 -4.886,6.136c0.003,1.103 9.028,7.155 10.669,7.155c0.749,-0 2.876,-1.396 4.727,-3.102Zm122.068,-0.889c2.014,-4.398 5.108,-7.244 14.033,-12.904c7.082,-4.491 15.75,-10.959 15.75,-11.752c0,-0.332 -0.965,-0.603 -2.144,-0.603c-3.479,-0 -10.868,4.328 -18.963,11.109c-6.008,5.033 -7.923,7.129 -9.3,10.177c-1.716,3.802 -2.104,5.211 -1.932,7.026c0.158,1.658 0.691,1.021 2.556,-3.053Zm-148.717,-16.442c0,-8.232 -3.999,-13.657 -13.263,-17.992c-8.49,-3.973 -18.987,-5.776 -18.987,-3.26c0,0.585 2.019,3.083 4.485,5.55c5.313,5.312 26.217,21.253 27.13,20.689c0.35,-0.216 0.635,-2.46 0.635,-4.987Zm-7.509,4.12c-0.006,-0.309 -1.102,-1.272 -2.437,-2.139c-3.082,-2.001 -17.256,-13.387 -24.349,-19.558c-5.946,-5.174 -5.682,-5.135 -11.992,-1.794c-4.407,2.334 -6.699,4.368 -5.838,5.181c1.976,1.867 21.326,10.864 30,13.949c5.363,1.908 10.425,3.773 11.25,4.145c1.888,0.852 3.378,0.948 3.366,0.216l0,0Zm-51.751,-12.163c0.507,-1.223 1.392,-2.615 1.966,-3.091c1.685,-1.399 1.233,-2.075 -1.967,-2.936c-3.274,-0.882 -7.429,-0.397 -10.676,1.247c-3.522,1.783 -2.399,4.009 2.993,5.934c4.694,1.675 6.633,1.384 7.684,-1.154Zm6.703,1.347c2.094,-0.484 3.804,-1.243 3.799,-1.688c-0.006,-0.445 -1.399,-1.475 -3.098,-2.289l-3.09,-1.481l-2.152,2.577c-1.183,1.418 -2.152,2.844 -2.152,3.169c0,0.832 2.262,0.734 6.693,-0.288Zm-34.068,-11.534c13.544,-3.081 21.379,-5.291 22.411,-6.323c1.374,-1.374 -3.153,-0.555 -23.911,4.325c-5.362,1.26 -12.534,2.522 -15.937,2.804c-5.79,0.48 -7.459,1.163 -5.25,2.151c1.856,0.83 11.651,-0.447 22.687,-2.957Zm-6,-2.325c3.3,-0.621 9.038,-1.942 12.75,-2.936c10.851,-2.906 20.843,-4.177 28.41,-3.614c3.911,0.292 6.542,0.215 6.375,-0.185c-0.157,-0.375 -2.039,-2.308 -4.184,-4.296l-3.899,-3.615l-4.875,1.95c-2.682,1.073 -8.352,2.636 -12.601,3.474c-8.796,1.733 -8.81,1.737 -21.976,5.966c-5.362,1.722 -10.256,3.631 -10.875,4.242c-1.26,1.245 -0.712,1.195 10.875,-0.986Zm55.46,-7.126c-0.596,-1.691 -1.085,-4.72 -1.085,-6.731c0,-2.01 -0.27,-3.655 -0.6,-3.655c-0.684,-0 -3.9,6.329 -3.9,7.675c0,1.202 5.345,6.605 6.082,6.149c0.324,-0.2 0.1,-1.747 -0.497,-3.438Zm-4.935,-7.486c1.792,-4.311 1.998,-5.9 0.764,-5.9c-0.66,-0 -7.393,3.263 -8.862,4.295c-0.544,0.382 4.683,5.455 5.621,5.455c0.482,-0 1.597,-1.733 2.477,-3.85Zm-14.053,-0.702c1.423,-0.762 1.337,-0.98 -1.695,-4.313c-10.377,-11.407 -12.729,-13.808 -13.131,-13.406c-0.966,0.966 4.369,10.508 8.052,14.402c4.162,4.401 4.468,4.551 6.774,3.317Zm60.09,-4.084c1.096,-3.601 1.201,-5.136 0.578,-8.505c-0.418,-2.261 -1.313,-4.722 -1.988,-5.468c-1.169,-1.292 -1.334,-1.295 -3.447,-0.062c-2.072,1.21 -2.189,1.518 -1.771,4.671c0.703,5.292 3.589,14.325 4.482,14.028c0.445,-0.149 1.41,-2.247 2.146,-4.664l-0,0Zm-50.437,-1.278c0,-0.35 -0.888,-2.389 -1.974,-4.532c-3.85,-7.598 -4.895,-11.751 -5.237,-20.804c-0.178,-4.744 -0.431,-10.427 -0.561,-12.63c-0.131,-2.202 0.005,-3.552 0.3,-3c0.295,0.553 0.718,5.73 0.938,11.505c0.331,8.663 0.74,11.47 2.336,16.048c1.674,4.802 5.998,12.827 6.912,12.827c0.169,-0 0.998,-0.422 1.842,-0.938c1.306,-0.797 1.696,-0.721 2.607,0.508c0.59,0.795 1.204,1.301 1.366,1.125c0.56,-0.609 4.174,-16.226 5.026,-21.719c0.47,-3.031 0.719,-8.906 0.553,-13.056c-0.363,-9.077 -2.755,-15.298 -7.549,-19.629c-10.607,-9.583 -24.213,-6.524 -30.245,6.799c-2.757,6.089 -4.384,23.038 -2.644,27.548c0.369,0.955 5.28,6.532 10.914,12.394l10.243,10.657l2.587,-1.234c1.422,-0.678 2.586,-1.52 2.586,-1.869Zm-47.017,-22.824c4.382,-0.268 7.797,-0.762 7.589,-1.099c-0.6,-0.97 -13.591,-4.921 -20.467,-6.225c-6.998,-1.327 -13.411,-1.525 -15.085,-0.466c-1.597,1.009 1.555,4.231 6.355,6.494c4.123,1.945 7.601,2.153 21.608,1.296Zm9.517,-2.418c0,-1.006 -11.441,-8.289 -14.318,-9.114c-2.763,-0.792 -16.948,-0.847 -20.495,-0.079c-1.203,0.26 -2.328,0.895 -2.5,1.411c-0.232,0.698 1.218,0.938 5.669,0.938c6.144,-0 14.711,1.86 25.269,5.487c6.32,2.171 6.375,2.183 6.375,1.357l0,0Zm-7.387,-22.594c0.062,-3.3 0.146,-6.394 0.188,-6.875c0.135,-1.586 -1.678,-1.498 -3.336,0.16c-1.31,1.31 -1.542,2.181 -1.181,4.433c0.581,3.636 2.531,8.282 3.477,8.282c0.415,-0 0.789,-2.631 0.852,-6l-0,-0Zm155.325,207.945c2.372,-0.149 6.253,-0.149 8.625,0c2.372,0.149 0.431,0.271 -4.313,0.271c-4.743,-0 -6.684,-0.122 -4.312,-0.271Zm-79.078,-86.208c0.541,-0.216 1.188,-0.19 1.437,0.059c0.249,0.25 -0.194,0.427 -0.984,0.394c-0.874,-0.036 -1.052,-0.213 -0.453,-0.453l-0,0Zm-16.241,-81.237c-0,-1.032 0.17,-1.454 0.378,-0.938c0.208,0.516 0.208,1.359 0,1.875c-0.208,0.516 -0.378,0.094 -0.378,-0.937Z" style="fill:#5c8171;fill-rule:nonzero;"/></g></svg>