<!DOCTYPE svg PUBLIC "-//W3C//DTD SVG 1.1//EN" "http://www.w3.org/Graphics/SVG/1.1/DTD/svg11.dtd"><svg width="100%" height="100%" viewBox="0 0 792 612" version="1.1" xmlns="http://www.w3.org/2000/svg" xmlns:xlink="http://www.w3.org/1999/xlink" xml:space="preserve" xmlns:serif="http://www.serif.com/" style="fill-rule:evenodd;clip-rule:evenodd;stroke-linejoin:round;stroke-miterlimit:2;"><g><g><path d="M299.376,235.269c-2.079,-0.079 -4.172,-2.527 -6.278,-7.345c-1.395,-3.106 -2.593,-6.686 -3.594,-10.74c-1.948,0.29 -5.133,0.579 -9.555,0.869c-4.16,0.289 -7.345,0.631 -9.556,1.026c-1.211,2.896 -3.317,7.253 -6.318,13.07c-1.158,1.896 -2.764,2.844 -4.817,2.844c-1.448,-0 -2.751,-0.494 -3.91,-1.481c-1.158,-0.987 -1.737,-2.244 -1.737,-3.771c-0,-1.343 1.922,-5.897 5.765,-13.663c-0.369,-0.816 -0.527,-1.579 -0.474,-2.29c0.105,-1.264 1.382,-2.251 3.83,-2.961c3.738,-6.476 7.898,-13.189 12.478,-20.139c6.581,-9.977 10.635,-14.965 12.162,-14.965c2.896,-0 4.831,1.75 5.805,5.251c0.526,2.817 1.355,7.042 2.487,12.676c1.606,7.581 3.567,16.255 5.884,26.022c0.184,0.737 0.856,2.474 2.014,5.212c0.948,2.264 1.421,3.962 1.421,5.094c0,1.527 -0.572,2.803 -1.717,3.83c-1.145,1.027 -2.442,1.514 -3.89,1.461Zm-14.728,-40.514c-2.054,3.528 -4.884,8.332 -8.49,14.413c1.185,-0.263 3.027,-0.474 5.528,-0.632c2.948,-0.184 4.804,-0.329 5.568,-0.434c-0.632,-3.422 -1.501,-7.871 -2.606,-13.347Z" style="fill:#829a6d;fill-rule:nonzero;"/><path d="M347.787,211.261c0,1.764 0.013,4.422 0.04,7.976c0.026,3.554 0.039,6.213 0.039,7.977c0,0.552 0.046,1.375 0.138,2.468c0.092,1.092 0.139,1.915 0.139,2.467c-0,1.475 -0.534,2.692 -1.6,3.653c-1.066,0.961 -2.375,1.441 -3.929,1.441c-2.185,0 -3.777,-0.987 -4.778,-2.961c-3.369,1.237 -6.857,1.856 -10.464,1.856c-3.738,-0 -6.883,-0.786 -9.437,-2.357c-2.869,-1.807 -4.58,-4.438 -5.133,-7.894c-1.027,-6.546 -1.54,-12.398 -1.54,-17.556c-0,-3.404 0.395,-7.292 1.184,-11.665c0.527,-2.958 2.304,-4.438 5.331,-4.438c1.527,0 2.83,0.477 3.909,1.431c1.08,0.954 1.619,2.163 1.619,3.627c0,1.15 -0.191,2.954 -0.572,5.411c-0.382,2.457 -0.573,4.326 -0.573,5.607c0,3.686 0.125,6.907 0.375,9.665c0.25,2.758 0.625,5.038 1.126,6.842c0.658,0.288 1.296,0.51 1.915,0.667c0.618,0.157 1.217,0.235 1.796,0.235c2.922,0 6.134,-0.421 9.635,-1.263c0,-2.027 -0.013,-4.331 -0.039,-6.911c-0.053,-3.08 -0.079,-5.291 -0.079,-6.633c-0,-5.397 0.25,-10.056 0.75,-13.979c0.395,-3.132 2.185,-4.699 5.37,-4.699c1.553,0 2.883,0.487 3.988,1.461c1.106,0.974 1.619,2.198 1.54,3.673c-0.5,10.029 -0.75,14.662 -0.75,13.899Z" style="fill:#829a6d;fill-rule:nonzero;"/><path d="M384.155,194.4c0.342,-8.977 0.75,-15.176 1.224,-18.598c0.447,-3.107 2.158,-4.66 5.133,-4.66c1.553,0 2.804,0.505 3.751,1.516c0.948,1.01 1.422,2.246 1.422,3.708c-0,3.855 -0.296,9.597 -0.889,17.226c-0.592,7.63 -0.888,13.372 -0.888,17.227c-0,9.411 0.303,15.711 0.908,18.901c0.079,0.425 0.119,0.811 0.119,1.157c-0,1.461 -0.527,2.664 -1.58,3.608c-1.053,0.944 -2.277,1.416 -3.672,1.416c-1.948,-0 -3.396,-0.869 -4.344,-2.606c-1.79,1.079 -3.646,1.783 -5.567,2.112c-1.922,0.329 -3.91,0.494 -5.963,0.494c-5.897,-0 -10.793,-1.882 -14.689,-5.647c-3.975,-3.843 -5.963,-8.74 -5.963,-14.689c0,-7.081 2.001,-12.8 6.002,-17.157c4.002,-4.357 9.227,-6.535 15.677,-6.535c1.974,-0 3.738,0.21 5.291,0.632c1.553,0.421 2.896,1.053 4.028,1.895Zm-0.79,12.438c-0.869,-1.658 -2.001,-2.895 -3.396,-3.711c-1.395,-0.816 -3.054,-1.224 -4.975,-1.224c-3.896,-0 -6.818,1.125 -8.766,3.376c-1.948,2.25 -2.922,5.627 -2.922,10.128c-0,2.843 1.052,5.278 3.158,7.305c2.106,2.027 4.555,3.041 7.345,3.041c2.027,-0 3.567,-0.237 4.62,-0.711c0.711,-0.316 1.922,-1.158 3.633,-2.527c0.447,-0.369 0.882,-0.777 1.303,-1.224c-0.053,-1.264 -0.053,-6.081 -0,-14.453Z" style="fill:#829a6d;fill-rule:nonzero;"/><path d="M453.257,199.296c-2.764,10.32 -5.542,19.691 -8.332,28.115c-0.79,2.369 -2.08,4.804 -3.87,7.305c-1.263,1.738 -2.948,2.593 -5.054,2.567c-3.317,-0.053 -5.923,-3.251 -7.819,-9.596c-0.71,-2.421 -1.553,-6.936 -2.527,-13.544c-0.552,1.159 -0.895,1.935 -1.026,2.33c-1.369,3.264 -3.37,8.332 -6.002,15.203c-0.395,1.105 -0.988,1.987 -1.777,2.645c-1.106,1.764 -2.751,2.685 -4.936,2.764c-1.237,0.053 -2.54,-1.053 -3.909,-3.317c-1.448,-2.29 -2.62,-5.238 -3.515,-8.845c-0.816,-3.264 -2.079,-10.372 -3.79,-21.323c-0.369,-2.369 -0.553,-4.225 -0.553,-5.567c-0,-1.448 0.546,-2.652 1.638,-3.613c1.093,-0.961 2.403,-1.442 3.929,-1.442c2.844,0 4.594,1.409 5.252,4.226c0.342,1.474 0.632,3.29 0.869,5.449c0.316,3.106 0.513,4.936 0.592,5.488c0.342,2.054 0.869,5.41 1.58,10.07c1.948,-5.344 4.185,-11.991 6.712,-19.941c1.08,-3.422 3.107,-5.134 6.081,-5.134c2.922,0 4.844,1.909 5.766,5.726c0.658,2.685 1.355,6.173 2.092,10.464c1.08,6.239 1.738,9.951 1.975,11.135c0.237,-0.816 2.303,-8.818 6.199,-24.008c0.579,-2.264 2.225,-3.396 4.936,-3.396c1.501,0 2.823,0.487 3.968,1.461c1.146,0.974 1.718,2.185 1.718,3.633c0,0.264 -0.066,0.645 -0.197,1.145Z" style="fill:#829a6d;fill-rule:nonzero;"/><path d="M477.975,235.901c-6.291,-0 -11.438,-1.501 -15.439,-4.502c-4.422,-3.317 -6.634,-7.989 -6.634,-14.018c0,-6.66 1.751,-12.293 5.252,-16.9c3.896,-5.107 9.148,-7.66 15.755,-7.66c4.581,-0 8.385,0.737 11.412,2.211c3.975,1.948 5.963,4.975 5.963,9.082c-0,2.895 -1.619,5.462 -4.857,7.7c-1.474,1.026 -4.436,2.527 -8.885,4.501l-13.307,5.884c1.264,1.369 2.79,2.395 4.581,3.08c1.79,0.684 3.843,1.026 6.159,1.026c3.528,0 6.516,-0.724 8.964,-2.171c2.185,-1.29 3.936,-1.935 5.252,-1.935c2.738,-0 4.106,1.329 4.106,3.988c0,3.001 -2.198,5.449 -6.594,7.345c-3.685,1.579 -7.595,2.369 -11.728,2.369Zm-1.066,-33.525c-2.448,0 -4.541,0.816 -6.278,2.449c-1.738,1.632 -3.133,4.08 -4.186,7.344c2.975,-1.29 5.937,-2.567 8.885,-3.83c3.554,-1.606 6.384,-3.093 8.49,-4.462c-1.764,-1 -4.068,-1.501 -6.911,-1.501Z" style="fill:#829a6d;fill-rule:nonzero;"/><path d="M542.537,200.718c-2.87,5.976 -7.411,15.36 -13.623,28.154c-3.37,6.871 -5.937,12.57 -7.7,17.098c-0.553,1.632 -1.422,4.054 -2.606,7.265c-0.948,2.475 -2.633,3.712 -5.055,3.712c-1.5,0 -2.817,-0.487 -3.948,-1.461c-1.132,-0.974 -1.698,-2.198 -1.698,-3.672c-0,-2.448 2.79,-9.701 8.371,-21.757c-2.896,-5.713 -7.49,-14.123 -13.781,-25.232c-0.632,-1.001 -1.277,-2.014 -1.935,-3.041c-0.711,-1.211 -1.066,-2.317 -1.066,-3.317c-0,-1.421 0.566,-2.672 1.698,-3.751c1.132,-1.079 2.435,-1.619 3.909,-1.619c1.737,-0 3.093,0.645 4.067,1.935c3.738,4.975 8.095,12.464 13.07,22.468c2.817,-6.239 4.528,-10.004 5.134,-11.293c1.869,-3.923 3.698,-7.371 5.488,-10.346c1.132,-1.895 2.685,-2.843 4.66,-2.843c1.474,-0 2.79,0.5 3.948,1.5c1.159,1.001 1.738,2.225 1.738,3.673c-0,0.763 -0.224,1.606 -0.671,2.527Z" style="fill:#829a6d;fill-rule:nonzero;"/></g><path d="M416.93,318.667c-1.764,0 -3.225,-0.869 -4.383,-2.606c-0.79,-1.316 -1.974,-3.304 -3.554,-5.962c-5.291,4.343 -11.096,6.515 -17.414,6.515c-5.291,-0 -9.832,-1.566 -13.623,-4.699c-4.027,-3.291 -6.041,-7.476 -6.041,-12.557c-0,-4.896 1.974,-9.148 5.923,-12.754c1.264,-1.185 5.397,-4.015 12.399,-8.49c-1.527,-4.212 -2.29,-7.91 -2.29,-11.096c-0,-2.843 1.211,-5.791 3.632,-8.845c2.607,-3.317 5.463,-4.975 8.569,-4.975c3.58,-0 6.515,1.145 8.806,3.435c2.185,2.185 3.277,4.857 3.277,8.016c0,6.107 -3.133,11.517 -9.398,16.229c1.843,3.738 3.87,7.332 6.081,10.78l1.303,-6.199c0.895,-2.501 2.396,-3.752 4.502,-3.752c1.553,0 2.803,0.724 3.751,2.172c0.816,1.237 1.224,2.62 1.224,4.146c0,4.897 -1.29,9.596 -3.87,14.097c4.239,6.265 6.358,10.188 6.358,11.767c-0,1.369 -0.54,2.508 -1.619,3.416c-1.079,0.908 -2.29,1.362 -3.633,1.362Zm-16.782,-55.716c-0.737,0.079 -1.342,0.592 -1.816,1.54c-0.395,0.816 -0.593,1.645 -0.593,2.488c0,0.368 0.25,1.382 0.751,3.04c0.552,1.843 0.842,2.857 0.868,3.041c0.869,-0.869 1.711,-1.988 2.528,-3.357c0.921,-1.526 1.382,-2.724 1.382,-3.593c-0,-1.185 -0.145,-1.987 -0.435,-2.409c-0.447,-0.631 -1.342,-0.881 -2.685,-0.75Zm-5.449,23.574c-2.738,1.737 -5.462,3.475 -8.174,5.212c-2.948,2.317 -4.422,4.857 -4.422,7.621c-0,2.238 0.947,4.067 2.843,5.489c1.816,1.369 4.027,2.053 6.633,2.053c4.423,0 8.345,-1.685 11.768,-5.054c-1.606,-2.396 -4.489,-7.503 -8.648,-15.321Z" style="fill:#829a6d;fill-rule:nonzero;"/><g><path d="M201.113,364.629c-1.184,4.264 -2.843,10.701 -4.975,19.309c-0.5,2.975 -0.987,5.936 -1.461,8.884c-1.079,3.739 -3.067,5.608 -5.963,5.608c-1.816,-0 -3.251,-0.619 -4.304,-1.856c-0.895,-1.053 -1.342,-2.304 -1.342,-3.752c-0,-4.264 0.908,-9.463 2.724,-15.597c2.712,-9.187 4.173,-14.281 4.383,-15.281c0.764,-4.054 1.54,-8.108 2.33,-12.162c1.185,-5.581 2.468,-9.299 3.85,-11.155c1.382,-1.856 3.126,-2.784 5.232,-2.784c2.396,-0 4.159,1.211 5.291,3.633c1.053,2.29 2.185,6.976 3.396,14.057c1.159,6.871 2.883,14.268 5.173,22.192c3.001,-7.819 5.792,-16.401 8.371,-25.746l2.212,-9.082c1.421,-3.764 3.619,-5.646 6.594,-5.646c2.869,-0 5.002,2.184 6.397,6.554c0.579,1.764 1.198,5.055 1.856,9.872c1.526,11.214 3.448,20.823 5.765,28.826c2.343,8.134 3.514,12.556 3.514,13.267c0,1.553 -0.619,2.856 -1.856,3.909c-1.158,0.948 -2.461,1.422 -3.909,1.422c-2.869,-0 -5.002,-2.053 -6.397,-6.16l-2.211,-9.556c-1.264,-4.738 -2.633,-11.543 -4.107,-20.415c-1.184,3.528 -3.146,9.069 -5.883,16.624l-2.37,7.266c-0.974,2.869 -1.987,5.225 -3.04,7.068c-1.395,2.448 -3.343,3.672 -5.844,3.672c-2.475,0 -4.37,-1.461 -5.686,-4.383l-2.211,-7.344c-2.054,-6.739 -3.897,-13.821 -5.529,-21.244Z" style="fill:#829a6d;fill-rule:nonzero;"/><path d="M289.722,397.995c-1.211,0 -3.133,-1.171 -5.765,-3.514c-2.422,1.158 -4.554,2.033 -6.397,2.626c-1.843,0.592 -3.409,0.888 -4.699,0.888c-6.344,0 -11.102,-1.698 -14.274,-5.094c-3.173,-3.395 -4.759,-8.476 -4.759,-15.242c0,-6.344 2.343,-11.773 7.029,-16.288c4.686,-4.515 10.293,-6.772 16.821,-6.772c2.501,0 5.397,0.704 8.688,2.111c3.975,1.695 5.962,3.662 5.962,5.904c0,0.938 -0.303,1.759 -0.908,2.463c-0.263,1.042 -0.467,2.352 -0.612,3.929c-0.145,1.577 -0.217,3.421 -0.217,5.532c-0,4.978 0.355,8.562 1.066,10.751c0.079,0.235 0.684,1.59 1.816,4.066c1.027,2.242 1.54,3.519 1.54,3.831c0,1.382 -0.533,2.528 -1.599,3.441c-1.066,0.912 -2.297,1.368 -3.692,1.368Zm-9.793,-26.653c0,-0.843 0.059,-1.81 0.178,-2.903c0.118,-1.092 0.296,-2.31 0.533,-3.652c-0.527,-0.263 -0.994,-0.454 -1.402,-0.573c-0.408,-0.118 -0.757,-0.177 -1.046,-0.177c-3.58,-0 -6.713,1.401 -9.398,4.205c-2.685,2.803 -4.028,6.048 -4.028,9.733c0,3.528 0.632,6.18 1.896,7.957c1.263,1.777 3.159,2.665 5.686,2.665c1.632,0 3.178,-0.269 4.639,-0.809c1.461,-0.54 2.837,-1.336 4.127,-2.389c-0.79,-6.265 -1.185,-10.951 -1.185,-14.057Z" style="fill:#829a6d;fill-rule:nonzero;"/><path d="M310.808,360.878c3.975,-4.607 7.739,-6.911 11.293,-6.911c4.054,0 7.029,1.54 8.924,4.62c1.606,-1.421 3.383,-2.487 5.331,-3.198c1.948,-0.711 4.054,-1.066 6.318,-1.066c5.16,-0 8.661,2.566 10.503,7.7c0.369,1.053 0.935,4.62 1.698,10.701c0.737,4.264 1.685,11.372 2.843,21.323c0.106,1.5 -0.408,2.737 -1.54,3.711c-1.132,0.974 -2.461,1.461 -3.988,1.461c-3.027,0 -4.804,-1.5 -5.33,-4.501c-0.474,-2.712 -0.961,-6.542 -1.461,-11.491c-0.527,-5.423 -0.961,-9.266 -1.304,-11.53c-0.71,-4.712 -1.619,-7.068 -2.724,-7.068c-0.606,-0 -1.988,0.605 -4.146,1.816c-2.159,1.211 -3.738,2.251 -4.739,3.12c0,3.001 0.356,7.318 1.066,12.951c0.738,5.765 1.106,10.083 1.106,12.952c0,1.501 -0.513,2.751 -1.54,3.751c-1.027,1.001 -2.33,1.501 -3.909,1.501c-1.58,-0 -2.883,-0.5 -3.909,-1.501c-1.027,-1 -1.54,-2.25 -1.54,-3.751c-0,-3.001 -0.323,-7.417 -0.968,-13.248c-0.645,-5.831 -0.967,-10.247 -0.967,-13.248c-0,-1.684 -0.145,-3.027 -0.435,-4.027c-3.053,1.763 -6.12,4.699 -9.2,8.805c-0.132,0.185 -0.355,0.461 -0.671,0.83c-0.106,5.317 -0.158,9.49 -0.158,12.517c-0,0.737 -0.027,1.731 -0.079,2.981c-0.053,1.251 -0.079,2.178 -0.079,2.784c-0,1.421 -0.579,2.54 -1.738,3.356c-1.053,0.764 -2.356,1.145 -3.909,1.145c-2.237,0 -3.751,-0.974 -4.541,-2.922c-0.553,-1.316 -0.829,-3.409 -0.829,-6.278l0,-14.689c0,-1.316 -0.053,-3.245 -0.158,-5.785c-0.105,-2.54 -0.158,-4.469 -0.158,-5.785c0,-2.343 0.421,-4.462 1.264,-6.357c1.026,-2.369 2.474,-3.554 4.343,-3.554c1.474,0 2.791,0.573 3.949,1.718c1.158,1.145 1.737,2.402 1.737,3.771c0,-0.553 -0.118,0.579 -0.355,3.396Z" style="fill:#829a6d;fill-rule:nonzero;"/><path d="M397.482,397.995c-1.211,0 -3.133,-1.171 -5.765,-3.514c-2.422,1.158 -4.555,2.033 -6.397,2.626c-1.843,0.592 -3.409,0.888 -4.699,0.888c-6.344,0 -11.103,-1.698 -14.275,-5.094c-3.172,-3.395 -4.758,-8.476 -4.758,-15.242c0,-6.344 2.343,-11.773 7.029,-16.288c4.686,-4.515 10.293,-6.772 16.821,-6.772c2.501,0 5.397,0.704 8.687,2.111c3.975,1.695 5.963,3.662 5.963,5.904c-0,0.938 -0.303,1.759 -0.908,2.463c-0.264,1.042 -0.468,2.352 -0.612,3.929c-0.145,1.577 -0.218,3.421 -0.218,5.532c0,4.978 0.356,8.562 1.067,10.751c0.079,0.235 0.684,1.59 1.816,4.066c1.027,2.242 1.54,3.519 1.54,3.831c-0,1.382 -0.533,2.528 -1.599,3.441c-1.066,0.912 -2.297,1.368 -3.692,1.368Zm-9.793,-26.653c-0,-0.843 0.059,-1.81 0.178,-2.903c0.118,-1.092 0.296,-2.31 0.533,-3.652c-0.527,-0.263 -0.994,-0.454 -1.402,-0.573c-0.408,-0.118 -0.757,-0.177 -1.046,-0.177c-3.581,-0 -6.713,1.401 -9.398,4.205c-2.685,2.803 -4.028,6.048 -4.028,9.733c0,3.528 0.632,6.18 1.895,7.957c1.264,1.777 3.159,2.665 5.687,2.665c1.632,0 3.178,-0.269 4.639,-0.809c1.461,-0.54 2.837,-1.336 4.127,-2.389c-0.79,-6.265 -1.185,-10.951 -1.185,-14.057Z" style="fill:#829a6d;fill-rule:nonzero;"/><path d="M436.139,366.919c-2.606,0 -4.172,-1.092 -4.699,-3.277c-1.053,-0.185 -2.132,-0.277 -3.237,-0.277c-6.345,0 -9.517,0.869 -9.517,2.606c0,1.027 1.909,2.409 5.726,4.146c5.212,2.396 8.74,4.265 10.582,5.608c3.817,2.764 5.726,5.883 5.726,9.358c-0,4.528 -2.106,7.963 -6.318,10.306c-3.396,1.869 -7.568,2.804 -12.517,2.804c-3.502,-0 -6.7,-0.54 -9.596,-1.619c-3.948,-1.474 -5.923,-3.646 -5.923,-6.516c0,-2.632 1.567,-3.948 4.699,-3.948c1.211,-0 2.962,0.381 5.252,1.145c2.29,0.763 4.054,1.145 5.291,1.145c5.344,-0 8.029,-1.079 8.056,-3.238c-0,-1.343 -1.856,-2.83 -5.568,-4.462c-5.423,-2.396 -8.898,-4.12 -10.425,-5.173c-3.711,-2.606 -5.567,-5.778 -5.567,-9.516c-0,-5.291 2.803,-8.858 8.41,-10.701c3.291,-1.079 8.293,-1.619 15.005,-1.619c2.633,-0 4.581,0.342 5.845,1.027c1.737,0.921 2.606,2.619 2.606,5.093c-0,4.739 -1.277,7.108 -3.831,7.108Z" style="fill:#829a6d;fill-rule:nonzero;"/><path d="M475.508,366.919c-2.606,0 -4.173,-1.092 -4.699,-3.277c-1.053,-0.185 -2.132,-0.277 -3.238,-0.277c-6.344,0 -9.516,0.869 -9.516,2.606c-0,1.027 1.908,2.409 5.725,4.146c5.213,2.396 8.74,4.265 10.583,5.608c3.817,2.764 5.725,5.883 5.725,9.358c0,4.528 -2.106,7.963 -6.318,10.306c-3.395,1.869 -7.568,2.804 -12.517,2.804c-3.501,-0 -6.7,-0.54 -9.595,-1.619c-3.949,-1.474 -5.923,-3.646 -5.923,-6.516c-0,-2.632 1.566,-3.948 4.699,-3.948c1.211,-0 2.961,0.381 5.251,1.145c2.291,0.763 4.054,1.145 5.292,1.145c5.344,-0 8.029,-1.079 8.055,-3.238c0,-1.343 -1.856,-2.83 -5.568,-4.462c-5.423,-2.396 -8.897,-4.12 -10.424,-5.173c-3.712,-2.606 -5.568,-5.778 -5.568,-9.516c0,-5.291 2.804,-8.858 8.411,-10.701c3.29,-1.079 8.292,-1.619 15.005,-1.619c2.632,-0 4.58,0.342 5.844,1.027c1.737,0.921 2.606,2.619 2.606,5.093c0,4.739 -1.277,7.108 -3.83,7.108Z" style="fill:#829a6d;fill-rule:nonzero;"/><path d="M496.081,348.36c-1.685,0 -3.146,-0.566 -4.383,-1.698c-1.238,-1.132 -1.856,-2.514 -1.856,-4.146c-0,-1.632 0.618,-3.014 1.856,-4.146c1.237,-1.132 2.698,-1.698 4.383,-1.698c1.684,0 3.139,0.566 4.363,1.698c1.224,1.132 1.836,2.514 1.836,4.146c-0,1.632 -0.612,3.014 -1.836,4.146c-1.224,1.132 -2.679,1.698 -4.363,1.698Zm3.356,28.944c-0,1.501 0.046,3.909 0.138,7.226c0.092,3.317 0.138,5.726 0.138,7.226c0,1.527 -0.513,2.784 -1.54,3.771c-1.026,0.987 -2.329,1.481 -3.909,1.481c-1.579,0 -2.882,-0.494 -3.909,-1.481c-1.027,-0.987 -1.54,-2.244 -1.54,-3.771c-0,-1.5 -0.046,-3.909 -0.138,-7.226c-0.092,-3.317 -0.138,-5.725 -0.138,-7.226c-0,-2.343 0.131,-5.278 0.394,-8.805c0.264,-3.528 0.395,-6.463 0.395,-8.806c0,-1.527 0.514,-2.784 1.54,-3.771c1.027,-0.987 2.33,-1.481 3.909,-1.481c1.58,0 2.883,0.494 3.91,1.481c1.026,0.987 1.54,2.244 1.54,3.771c-0,2.343 -0.132,5.278 -0.395,8.806c-0.263,3.527 -0.395,6.462 -0.395,8.805Z" style="fill:#829a6d;fill-rule:nonzero;"/><path d="M519.97,360.878c3.975,-4.607 7.74,-6.911 11.293,-6.911c4.054,0 7.029,1.54 8.924,4.62c1.606,-1.421 3.383,-2.487 5.331,-3.198c1.948,-0.711 4.054,-1.066 6.318,-1.066c5.16,-0 8.661,2.566 10.504,7.7c0.368,1.053 0.934,4.62 1.698,10.701c0.737,4.264 1.684,11.372 2.843,21.323c0.105,1.5 -0.408,2.737 -1.54,3.711c-1.132,0.974 -2.462,1.461 -3.989,1.461c-3.027,0 -4.804,-1.5 -5.33,-4.501c-0.474,-2.712 -0.961,-6.542 -1.461,-11.491c-0.527,-5.423 -0.961,-9.266 -1.303,-11.53c-0.711,-4.712 -1.619,-7.068 -2.725,-7.068c-0.605,-0 -1.988,0.605 -4.146,1.816c-2.159,1.211 -3.738,2.251 -4.739,3.12c0,3.001 0.356,7.318 1.067,12.951c0.737,5.765 1.105,10.083 1.105,12.952c0,1.501 -0.513,2.751 -1.54,3.751c-1.026,1.001 -2.329,1.501 -3.909,1.501c-1.579,-0 -2.883,-0.5 -3.909,-1.501c-1.027,-1 -1.54,-2.25 -1.54,-3.751c-0,-3.001 -0.323,-7.417 -0.968,-13.248c-0.645,-5.831 -0.967,-10.247 -0.967,-13.248c-0,-1.684 -0.145,-3.027 -0.434,-4.027c-3.054,1.763 -6.121,4.699 -9.201,8.805c-0.131,0.185 -0.355,0.461 -0.671,0.83c-0.105,5.317 -0.158,9.49 -0.158,12.517c-0,0.737 -0.026,1.731 -0.079,2.981c-0.053,1.251 -0.079,2.178 -0.079,2.784c-0,1.421 -0.579,2.54 -1.737,3.356c-1.053,0.764 -2.356,1.145 -3.91,1.145c-2.237,0 -3.751,-0.974 -4.541,-2.922c-0.552,-1.316 -0.829,-3.409 -0.829,-6.278l0,-14.689c0,-1.316 -0.052,-3.245 -0.158,-5.785c-0.105,-2.54 -0.158,-4.469 -0.158,-5.785c0,-2.343 0.421,-4.462 1.264,-6.357c1.026,-2.369 2.474,-3.554 4.343,-3.554c1.475,0 2.791,0.573 3.949,1.718c1.158,1.145 1.738,2.402 1.738,3.771c-0,-0.553 -0.119,0.579 -0.356,3.396Z" style="fill:#829a6d;fill-rule:nonzero;"/><path d="M592.468,397.64c-6.291,-0 -11.438,-1.501 -15.439,-4.502c-4.423,-3.317 -6.634,-7.989 -6.634,-14.017c-0,-6.661 1.75,-12.294 5.252,-16.901c3.896,-5.107 9.147,-7.66 15.755,-7.66c4.58,-0 8.384,0.737 11.412,2.211c3.975,1.948 5.962,4.975 5.962,9.082c0,2.896 -1.619,5.462 -4.857,7.7c-1.474,1.027 -4.435,2.527 -8.884,4.501l-13.307,5.884c1.263,1.369 2.79,2.395 4.58,3.08c1.79,0.684 3.844,1.027 6.16,1.027c3.528,-0 6.515,-0.724 8.964,-2.172c2.185,-1.29 3.935,-1.935 5.251,-1.935c2.738,-0 4.107,1.329 4.107,3.988c0,3.001 -2.198,5.449 -6.594,7.345c-3.686,1.579 -7.595,2.369 -11.728,2.369Zm-1.066,-33.525c-2.448,0 -4.541,0.817 -6.278,2.449c-1.738,1.632 -3.133,4.08 -4.186,7.344c2.975,-1.29 5.936,-2.566 8.884,-3.83c3.554,-1.606 6.384,-3.093 8.49,-4.462c-1.764,-1 -4.067,-1.501 -6.91,-1.501Z" style="fill:#829a6d;fill-rule:nonzero;"/></g></g></svg>